<mxfile host="app.diagrams.net" modified="2023-10-13T14:04:48.876Z" agent="Mozilla/5.0 (Windows NT 10.0; Win64; x64) AppleWebKit/537.36 (KHTML, like Gecko) Chrome/116.0.5845.881 YaBrowser/23.9.2.881 Yowser/2.5 Safari/537.36" etag="QDpHRaB0A8mx6apUpiQA" version="22.0.4" type="device">
  <diagram name="Страница — 1" id="1q-exKGEzcmBuOgPxJ8D">
    <mxGraphModel dx="2473" dy="921" grid="1" gridSize="10" guides="1" tooltips="1" connect="1" arrows="1" fold="1" page="1" pageScale="1" pageWidth="827" pageHeight="1169" math="0" shadow="0">
      <root>
        <mxCell id="0" />
        <mxCell id="1" parent="0" />
        <object label="top_level" type="instance" id="3nGvaKqkvXA6sOIK3AB7-40">
          <mxCell style="rounded=0;whiteSpace=wrap;html=1;container=1;labelPosition=center;verticalLabelPosition=middle;align=center;verticalAlign=top;recursiveResize=0;allowArrows=1;connectable=0;autosize=0;movable=1;movableLabel=0;resizable=1;snapToPoint=0;enumerate=0;fixDash=1;fillColor=#dae8fc;strokeColor=#6c8ebf;fillOpacity=50;" vertex="1" parent="1">
            <mxGeometry x="-70" y="340" width="1310" height="750" as="geometry">
              <mxRectangle x="380" y="30" width="320" height="40" as="alternateBounds" />
            </mxGeometry>
          </mxCell>
        </object>
        <object label="top" type="module_name" id="3nGvaKqkvXA6sOIK3AB7-41">
          <mxCell style="text;html=1;strokeColor=none;fillColor=none;align=center;verticalAlign=middle;whiteSpace=wrap;rounded=0;snapToPoint=1;" vertex="1" parent="3nGvaKqkvXA6sOIK3AB7-40">
            <mxGeometry x="270" y="720" width="320" height="30" as="geometry" />
          </mxCell>
        </object>
        <object label="output_port_name[:]" type="port" port_direction="output" id="3nGvaKqkvXA6sOIK3AB7-42">
          <mxCell style="rounded=0;whiteSpace=wrap;html=1;align=right;fillColor=#ffe6cc;strokeColor=#d79b00;noLabel=0;snapToPoint=1;autosize=0;points=[[1,0.5,0,0,0]];" vertex="1" parent="3nGvaKqkvXA6sOIK3AB7-40">
            <mxGeometry x="1170" y="200" width="140" height="20" as="geometry" />
          </mxCell>
        </object>
        <object label="input_port_name[:]" type="port" port_direction="input" id="3nGvaKqkvXA6sOIK3AB7-47">
          <mxCell style="rounded=0;whiteSpace=wrap;html=1;align=left;fillColor=#d5e8d4;strokeColor=#82b366;points=[[0,0.5,0,0,0]];" vertex="1" parent="3nGvaKqkvXA6sOIK3AB7-40">
            <mxGeometry y="90" width="140" height="20" as="geometry" />
          </mxCell>
        </object>
        <object label="input_port_name[:]" type="port" port_direction="input" id="3nGvaKqkvXA6sOIK3AB7-48">
          <mxCell style="rounded=0;whiteSpace=wrap;html=1;align=left;fillColor=#d5e8d4;strokeColor=#82b366;points=[[0,0.5,0,0,0]];" vertex="1" parent="3nGvaKqkvXA6sOIK3AB7-40">
            <mxGeometry y="110" width="140" height="20" as="geometry" />
          </mxCell>
        </object>
        <mxCell id="3nGvaKqkvXA6sOIK3AB7-52" value="Inst parameters" style="rounded=0;whiteSpace=wrap;html=1;container=1;fillColor=#d0cee2;strokeColor=#56517e;verticalAlign=top;points=[];recursiveResize=0;connectable=0;" vertex="1" collapsed="1" parent="3nGvaKqkvXA6sOIK3AB7-40">
          <mxGeometry y="30" width="320" height="30" as="geometry">
            <mxRectangle y="30" width="320" height="110" as="alternateBounds" />
          </mxGeometry>
        </mxCell>
        <object label=".C_DATA(45)" type="inst_parameters" id="3nGvaKqkvXA6sOIK3AB7-53">
          <mxCell style="rounded=0;whiteSpace=wrap;html=1;align=left;verticalAlign=top;points=[];" vertex="1" parent="3nGvaKqkvXA6sOIK3AB7-52">
            <mxGeometry y="25" width="320" height="85" as="geometry" />
          </mxCell>
        </object>
        <mxCell id="3nGvaKqkvXA6sOIK3AB7-54" value="Description" style="rounded=0;whiteSpace=wrap;html=1;container=1;fillColor=#d0cee2;strokeColor=#56517e;verticalAlign=top;points=[];recursiveResize=0;connectable=0;" vertex="1" collapsed="1" parent="3nGvaKqkvXA6sOIK3AB7-40">
          <mxGeometry x="30" y="620" width="320" height="30" as="geometry">
            <mxRectangle y="250" width="320" height="110" as="alternateBounds" />
          </mxGeometry>
        </mxCell>
        <object label="//&lt;br&gt;//Module description&lt;br&gt;//" type="description" id="3nGvaKqkvXA6sOIK3AB7-55">
          <mxCell style="rounded=0;whiteSpace=wrap;html=1;align=left;verticalAlign=top;points=[];" vertex="1" parent="3nGvaKqkvXA6sOIK3AB7-54">
            <mxGeometry y="25" width="320" height="85" as="geometry" />
          </mxCell>
        </object>
        <mxCell id="3nGvaKqkvXA6sOIK3AB7-56" value="Default parameters" style="rounded=0;whiteSpace=wrap;html=1;container=1;fillColor=#d0cee2;strokeColor=#56517e;verticalAlign=top;points=[];recursiveResize=0;connectable=0;" vertex="1" collapsed="1" parent="3nGvaKqkvXA6sOIK3AB7-40">
          <mxGeometry x="30" y="590" width="320" height="30" as="geometry">
            <mxRectangle y="220" width="320" height="150" as="alternateBounds" />
          </mxGeometry>
        </mxCell>
        <object label="C_PARAMETER = 1234,&lt;br&gt;C_SOMTHING = 5678" type="default_parameters" id="3nGvaKqkvXA6sOIK3AB7-57">
          <mxCell style="rounded=0;whiteSpace=wrap;html=1;align=left;verticalAlign=top;points=[];" vertex="1" parent="3nGvaKqkvXA6sOIK3AB7-56">
            <mxGeometry y="30" width="320" height="120" as="geometry" />
          </mxCell>
        </object>
        <object label="inst_0" type="instance" id="3nGvaKqkvXA6sOIK3AB7-20">
          <mxCell style="rounded=0;whiteSpace=wrap;html=1;container=1;labelPosition=center;verticalLabelPosition=middle;align=center;verticalAlign=top;recursiveResize=0;allowArrows=1;connectable=0;autosize=0;movable=1;movableLabel=0;resizable=1;snapToPoint=0;enumerate=0;fixDash=1;fillColor=#dae8fc;strokeColor=#6c8ebf;fillOpacity=50;" vertex="1" parent="3nGvaKqkvXA6sOIK3AB7-40">
            <mxGeometry x="770" y="160" width="320" height="330" as="geometry">
              <mxRectangle x="380" y="30" width="320" height="40" as="alternateBounds" />
            </mxGeometry>
          </mxCell>
        </object>
        <object label="m_234" type="module_name" id="3nGvaKqkvXA6sOIK3AB7-21">
          <mxCell style="text;html=1;strokeColor=none;fillColor=none;align=center;verticalAlign=middle;whiteSpace=wrap;rounded=0;snapToPoint=1;" vertex="1" parent="3nGvaKqkvXA6sOIK3AB7-20">
            <mxGeometry y="300" width="320" height="30" as="geometry" />
          </mxCell>
        </object>
        <object label="output_port_name[:]" type="port" port_direction="output" id="3nGvaKqkvXA6sOIK3AB7-22">
          <mxCell style="rounded=0;whiteSpace=wrap;html=1;align=right;fillColor=#ffe6cc;strokeColor=#d79b00;noLabel=0;snapToPoint=1;autosize=0;points=[[1,0.5,0,0,0]];" vertex="1" parent="3nGvaKqkvXA6sOIK3AB7-20">
            <mxGeometry x="180" y="90" width="140" height="20" as="geometry" />
          </mxCell>
        </object>
        <object label="output_port_name[:]" type="port" port_direction="output" id="3nGvaKqkvXA6sOIK3AB7-23">
          <mxCell style="rounded=0;whiteSpace=wrap;html=1;align=right;fillColor=#ffe6cc;strokeColor=#d79b00;noLabel=0;snapToPoint=1;autosize=0;points=[[1,0.5,0,0,0]];" vertex="1" parent="3nGvaKqkvXA6sOIK3AB7-20">
            <mxGeometry x="180" y="110" width="140" height="20" as="geometry" />
          </mxCell>
        </object>
        <object label="output_port_name[:]" type="port" port_direction="output" id="3nGvaKqkvXA6sOIK3AB7-24">
          <mxCell style="rounded=0;whiteSpace=wrap;html=1;align=right;fillColor=#ffe6cc;strokeColor=#d79b00;noLabel=0;snapToPoint=1;autosize=0;points=[[1,0.5,0,0,0]];" vertex="1" parent="3nGvaKqkvXA6sOIK3AB7-20">
            <mxGeometry x="180" y="150" width="140" height="20" as="geometry" />
          </mxCell>
        </object>
        <object label="output_port_name[:]" type="port" port_direction="output" id="3nGvaKqkvXA6sOIK3AB7-25">
          <mxCell style="rounded=0;whiteSpace=wrap;html=1;align=right;fillColor=#ffe6cc;strokeColor=#d79b00;noLabel=0;snapToPoint=1;autosize=0;points=[[1,0.5,0,0,0]];" vertex="1" parent="3nGvaKqkvXA6sOIK3AB7-20">
            <mxGeometry x="180" y="170" width="140" height="20" as="geometry" />
          </mxCell>
        </object>
        <object label="output_port_name[:]" type="port" port_direction="output" id="3nGvaKqkvXA6sOIK3AB7-26">
          <mxCell style="rounded=0;whiteSpace=wrap;html=1;align=left;fillColor=#ffe6cc;strokeColor=#d79b00;noLabel=0;snapToPoint=1;autosize=0;points=[[1,0.5,0,0,0]];flipH=1;" vertex="1" parent="3nGvaKqkvXA6sOIK3AB7-20">
            <mxGeometry y="130" width="140" height="20" as="geometry" />
          </mxCell>
        </object>
        <object label="input_port_name[:]" type="port" port_direction="input" id="3nGvaKqkvXA6sOIK3AB7-27">
          <mxCell style="rounded=0;whiteSpace=wrap;html=1;align=left;fillColor=#d5e8d4;strokeColor=#82b366;points=[[0,0.5,0,0,0]];" vertex="1" parent="3nGvaKqkvXA6sOIK3AB7-20">
            <mxGeometry y="90" width="140" height="20" as="geometry" />
          </mxCell>
        </object>
        <object label="input_port_name[:]" type="port" port_direction="input" id="3nGvaKqkvXA6sOIK3AB7-28">
          <mxCell style="rounded=0;whiteSpace=wrap;html=1;align=left;fillColor=#d5e8d4;strokeColor=#82b366;points=[[0,0.5,0,0,0]];" vertex="1" parent="3nGvaKqkvXA6sOIK3AB7-20">
            <mxGeometry y="110" width="140" height="20" as="geometry" />
          </mxCell>
        </object>
        <object label="input_port_name[:]" type="port" port_direction="input" id="3nGvaKqkvXA6sOIK3AB7-29">
          <mxCell style="rounded=0;whiteSpace=wrap;html=1;align=left;fillColor=#d5e8d4;strokeColor=#82b366;points=[[0,0.5,0,0,0]];" vertex="1" parent="3nGvaKqkvXA6sOIK3AB7-20">
            <mxGeometry y="150" width="140" height="20" as="geometry" />
          </mxCell>
        </object>
        <object label="input_port_name[:]" type="port" port_direction="input" id="3nGvaKqkvXA6sOIK3AB7-30">
          <mxCell style="rounded=0;whiteSpace=wrap;html=1;align=left;fillColor=#d5e8d4;strokeColor=#82b366;points=[[0,0.5,0,0,0]];" vertex="1" parent="3nGvaKqkvXA6sOIK3AB7-20">
            <mxGeometry y="170" width="140" height="20" as="geometry" />
          </mxCell>
        </object>
        <object label="input_port_name[:]" type="port" port_direction="input" id="3nGvaKqkvXA6sOIK3AB7-31">
          <mxCell style="rounded=0;whiteSpace=wrap;html=1;align=right;fillColor=#d5e8d4;strokeColor=#82b366;points=[[0,0.5,0,0,0]];flipH=1;" vertex="1" parent="3nGvaKqkvXA6sOIK3AB7-20">
            <mxGeometry x="180" y="130" width="140" height="20" as="geometry" />
          </mxCell>
        </object>
        <mxCell id="3nGvaKqkvXA6sOIK3AB7-32" value="Inst parameters" style="rounded=0;whiteSpace=wrap;html=1;container=1;fillColor=#d0cee2;strokeColor=#56517e;verticalAlign=top;points=[];recursiveResize=0;connectable=0;" vertex="1" collapsed="1" parent="3nGvaKqkvXA6sOIK3AB7-20">
          <mxGeometry y="30" width="320" height="30" as="geometry">
            <mxRectangle y="30" width="320" height="110" as="alternateBounds" />
          </mxGeometry>
        </mxCell>
        <object label=".C_DATA(45)" type="inst_parameters" id="3nGvaKqkvXA6sOIK3AB7-33">
          <mxCell style="rounded=0;whiteSpace=wrap;html=1;align=left;verticalAlign=top;points=[];" vertex="1" parent="3nGvaKqkvXA6sOIK3AB7-32">
            <mxGeometry y="25" width="320" height="85" as="geometry" />
          </mxCell>
        </object>
        <mxCell id="3nGvaKqkvXA6sOIK3AB7-34" value="Description" style="rounded=0;whiteSpace=wrap;html=1;container=1;fillColor=#d0cee2;strokeColor=#56517e;verticalAlign=top;points=[];recursiveResize=0;connectable=0;" vertex="1" collapsed="1" parent="3nGvaKqkvXA6sOIK3AB7-20">
          <mxGeometry y="250" width="320" height="30" as="geometry">
            <mxRectangle y="250" width="320" height="110" as="alternateBounds" />
          </mxGeometry>
        </mxCell>
        <object label="//&lt;br&gt;//Module description&lt;br&gt;//" type="description" id="3nGvaKqkvXA6sOIK3AB7-35">
          <mxCell style="rounded=0;whiteSpace=wrap;html=1;align=left;verticalAlign=top;points=[];" vertex="1" parent="3nGvaKqkvXA6sOIK3AB7-34">
            <mxGeometry y="25" width="320" height="85" as="geometry" />
          </mxCell>
        </object>
        <mxCell id="3nGvaKqkvXA6sOIK3AB7-36" value="Default parameters" style="rounded=0;whiteSpace=wrap;html=1;container=1;fillColor=#d0cee2;strokeColor=#56517e;verticalAlign=top;points=[];recursiveResize=0;connectable=0;" vertex="1" collapsed="1" parent="3nGvaKqkvXA6sOIK3AB7-20">
          <mxGeometry y="220" width="320" height="30" as="geometry">
            <mxRectangle y="220" width="320" height="150" as="alternateBounds" />
          </mxGeometry>
        </mxCell>
        <object label="C_PARAMETER = 1234,&lt;br&gt;C_SOMTHING = 5678" type="default_parameters" id="3nGvaKqkvXA6sOIK3AB7-37">
          <mxCell style="rounded=0;whiteSpace=wrap;html=1;align=left;verticalAlign=top;points=[];" vertex="1" parent="3nGvaKqkvXA6sOIK3AB7-36">
            <mxGeometry y="30" width="320" height="120" as="geometry" />
          </mxCell>
        </object>
        <object label="instance_0" type="instance" id="3nGvaKqkvXA6sOIK3AB7-1">
          <mxCell style="rounded=0;whiteSpace=wrap;html=1;container=1;labelPosition=center;verticalLabelPosition=middle;align=center;verticalAlign=top;recursiveResize=0;allowArrows=1;connectable=0;autosize=0;movable=1;movableLabel=0;resizable=1;snapToPoint=0;enumerate=0;fixDash=1;fillColor=#dae8fc;strokeColor=#6c8ebf;fillOpacity=50;" vertex="1" parent="3nGvaKqkvXA6sOIK3AB7-40">
            <mxGeometry x="260" y="170" width="320" height="360" as="geometry">
              <mxRectangle x="380" y="30" width="320" height="40" as="alternateBounds" />
            </mxGeometry>
          </mxCell>
        </object>
        <object label="my_module" type="module_name" id="3nGvaKqkvXA6sOIK3AB7-2">
          <mxCell style="text;html=1;strokeColor=none;fillColor=none;align=center;verticalAlign=middle;whiteSpace=wrap;rounded=0;snapToPoint=1;" vertex="1" parent="3nGvaKqkvXA6sOIK3AB7-1">
            <mxGeometry y="330" width="320" height="30" as="geometry" />
          </mxCell>
        </object>
        <object label="o_out[1:5]" type="port" port_direction="output" id="3nGvaKqkvXA6sOIK3AB7-3">
          <mxCell style="rounded=0;whiteSpace=wrap;html=1;align=right;fillColor=#ffe6cc;strokeColor=#d79b00;noLabel=0;snapToPoint=1;autosize=0;points=[[1,0.5,0,0,0]];" vertex="1" parent="3nGvaKqkvXA6sOIK3AB7-1">
            <mxGeometry x="180" y="90" width="140" height="20" as="geometry" />
          </mxCell>
        </object>
        <object label="isomeport" type="port" port_direction="input" id="3nGvaKqkvXA6sOIK3AB7-8">
          <mxCell style="rounded=0;whiteSpace=wrap;html=1;align=left;fillColor=#d5e8d4;strokeColor=#82b366;points=[[0,0.5,0,0,0]];" vertex="1" parent="3nGvaKqkvXA6sOIK3AB7-1">
            <mxGeometry y="90" width="140" height="20" as="geometry" />
          </mxCell>
        </object>
        <object label="i_some_bus[41:0]" type="port" port_direction="input" id="3nGvaKqkvXA6sOIK3AB7-9">
          <mxCell style="rounded=0;whiteSpace=wrap;html=1;align=left;fillColor=#d5e8d4;strokeColor=#82b366;points=[[0,0.5,0,0,0]];" vertex="1" parent="3nGvaKqkvXA6sOIK3AB7-1">
            <mxGeometry y="110" width="140" height="20" as="geometry" />
          </mxCell>
        </object>
        <mxCell id="3nGvaKqkvXA6sOIK3AB7-13" value="Inst parameters" style="rounded=0;whiteSpace=wrap;html=1;container=1;fillColor=#d0cee2;strokeColor=#56517e;verticalAlign=top;points=[];recursiveResize=0;connectable=0;" vertex="1" collapsed="1" parent="3nGvaKqkvXA6sOIK3AB7-1">
          <mxGeometry y="30" width="320" height="30" as="geometry">
            <mxRectangle y="30" width="320" height="110" as="alternateBounds" />
          </mxGeometry>
        </mxCell>
        <object label=".C_DATA(45)" type="inst_parameters" id="3nGvaKqkvXA6sOIK3AB7-14">
          <mxCell style="rounded=0;whiteSpace=wrap;html=1;align=left;verticalAlign=top;points=[];" vertex="1" parent="3nGvaKqkvXA6sOIK3AB7-13">
            <mxGeometry y="25" width="320" height="85" as="geometry" />
          </mxCell>
        </object>
        <mxCell id="3nGvaKqkvXA6sOIK3AB7-15" value="Description" style="rounded=0;whiteSpace=wrap;html=1;container=1;fillColor=#d0cee2;strokeColor=#56517e;verticalAlign=top;points=[];recursiveResize=0;connectable=0;" vertex="1" collapsed="1" parent="3nGvaKqkvXA6sOIK3AB7-1">
          <mxGeometry y="250" width="320" height="30" as="geometry">
            <mxRectangle y="250" width="320" height="110" as="alternateBounds" />
          </mxGeometry>
        </mxCell>
        <object label="//&lt;br&gt;//Module description&lt;br&gt;//" type="description" id="3nGvaKqkvXA6sOIK3AB7-16">
          <mxCell style="rounded=0;whiteSpace=wrap;html=1;align=left;verticalAlign=top;points=[];" vertex="1" parent="3nGvaKqkvXA6sOIK3AB7-15">
            <mxGeometry y="25" width="320" height="85" as="geometry" />
          </mxCell>
        </object>
        <mxCell id="3nGvaKqkvXA6sOIK3AB7-17" value="Default parameters" style="rounded=0;whiteSpace=wrap;html=1;container=1;fillColor=#d0cee2;strokeColor=#56517e;verticalAlign=top;points=[];recursiveResize=0;connectable=0;" vertex="1" collapsed="1" parent="3nGvaKqkvXA6sOIK3AB7-1">
          <mxGeometry y="220" width="320" height="30" as="geometry">
            <mxRectangle y="220" width="320" height="150" as="alternateBounds" />
          </mxGeometry>
        </mxCell>
        <object label="C_PARAMETER = 1234,&lt;br&gt;C_SOMTHING = 5678" type="default_parameters" id="3nGvaKqkvXA6sOIK3AB7-18">
          <mxCell style="rounded=0;whiteSpace=wrap;html=1;align=left;verticalAlign=top;points=[];" vertex="1" parent="3nGvaKqkvXA6sOIK3AB7-17">
            <mxGeometry y="30" width="320" height="120" as="geometry" />
          </mxCell>
        </object>
        <object label="valid" type="port" port_direction="input" id="3nGvaKqkvXA6sOIK3AB7-19">
          <mxCell style="rounded=0;whiteSpace=wrap;html=1;align=right;fillColor=#d5e8d4;strokeColor=#82b366;points=[[0,0.5,0,0,0]];" vertex="1" parent="3nGvaKqkvXA6sOIK3AB7-1">
            <mxGeometry x="180" y="150" width="140" height="20" as="geometry" />
          </mxCell>
        </object>
        <object label="" type="wire" id="3nGvaKqkvXA6sOIK3AB7-39">
          <mxCell style="edgeStyle=orthogonalEdgeStyle;rounded=0;orthogonalLoop=1;jettySize=auto;html=1;entryX=0;entryY=0.5;entryDx=0;entryDy=0;entryPerimeter=0;exitX=1;exitY=0.5;exitDx=0;exitDy=0;exitPerimeter=0;" edge="1" parent="3nGvaKqkvXA6sOIK3AB7-40" source="3nGvaKqkvXA6sOIK3AB7-3" target="3nGvaKqkvXA6sOIK3AB7-27">
            <mxGeometry relative="1" as="geometry">
              <mxPoint x="660" y="250" as="sourcePoint" />
              <mxPoint x="760" y="250" as="targetPoint" />
            </mxGeometry>
          </mxCell>
        </object>
        <object label="" type="wire" id="3nGvaKqkvXA6sOIK3AB7-58">
          <mxCell style="edgeStyle=orthogonalEdgeStyle;rounded=0;orthogonalLoop=1;jettySize=auto;html=1;entryX=0.007;entryY=0.375;entryDx=0;entryDy=0;entryPerimeter=0;exitX=1;exitY=0.5;exitDx=0;exitDy=0;exitPerimeter=0;" edge="1" parent="3nGvaKqkvXA6sOIK3AB7-40" source="3nGvaKqkvXA6sOIK3AB7-22" target="3nGvaKqkvXA6sOIK3AB7-42">
            <mxGeometry relative="1" as="geometry">
              <mxPoint x="550" y="350" as="sourcePoint" />
              <mxPoint x="650" y="350" as="targetPoint" />
            </mxGeometry>
          </mxCell>
        </object>
        <object label="" type="wire" id="3nGvaKqkvXA6sOIK3AB7-59">
          <mxCell style="edgeStyle=orthogonalEdgeStyle;rounded=0;orthogonalLoop=1;jettySize=auto;html=1;entryX=0;entryY=0.5;entryDx=0;entryDy=0;entryPerimeter=0;exitX=1;exitY=0.5;exitDx=0;exitDy=0;exitPerimeter=0;" edge="1" parent="3nGvaKqkvXA6sOIK3AB7-40" source="3nGvaKqkvXA6sOIK3AB7-48" target="3nGvaKqkvXA6sOIK3AB7-8">
            <mxGeometry relative="1" as="geometry">
              <mxPoint x="1100" y="270" as="sourcePoint" />
              <mxPoint x="1181" y="217" as="targetPoint" />
            </mxGeometry>
          </mxCell>
        </object>
      </root>
    </mxGraphModel>
  </diagram>
</mxfile>
